<?xml version="1.0" encoding="iso-8859-1"?>
<!-- Generator: Adobe Illustrator 19.0.0, SVG Export Plug-In . SVG Version: 6.00 Build 0)  -->
<svg version="1.1" id="Capa_1" xmlns="http://www.w3.org/2000/svg" xmlns:xlink="http://www.w3.org/1999/xlink" x="0px" y="0px"
	 viewBox="0 0 511.999 511.999" style="enable-background:new 0 0 511.999 511.999;" xml:space="preserve">
<path style="fill:#0054A0;" d="M498.7,127.731c0,57.051-46.255,103.306-103.307,103.306c-20.017,0-38.704-15.697-54.528-25.556
	c-29.288-18.234-48.779-40.716-48.779-77.751c0-45.05,28.835-83.362,69.063-97.486c10.714-3.77,22.241-5.821,34.243-5.821
	C452.445,24.425,498.7,70.68,498.7,127.731z"/>
<path style="fill:#003A7F;" d="M363.685,145.914c5.439,7.458,8.653,16.627,8.653,26.548c0,20.119-13.238,27.21-31.472,33.02
	c-29.288-18.234-48.779-40.716-48.779-77.751c0-45.05,28.835-83.362,69.063-97.486c3.904,5.491,7.015,11.394,9.261,17.647
	C382.444,81.456,380.106,115.297,363.685,145.914z"/>
<path style="fill:#0054A0;" d="M481.064,363.571v101.421c0,4.553-3.688,8.241-8.241,8.241H317.409c-4.553,0-8.241-3.688-8.241-8.241
	V363.571c0-17.585,5.285-33.944,14.361-47.563c2.658-3.997,5.635-7.757,8.921-11.239c15.669-16.71,37.962-27.145,62.676-27.145
	c23.725,0,45.215,9.622,60.77,25.167c4.028,4.028,7.664,8.468,10.817,13.228C475.779,329.636,481.064,345.985,481.064,363.571z"/>
<g>
	<path style="fill:#003A7F;" d="M402.409,307.488v165.746h-15.453V307.488c0-4.265,3.461-7.726,7.726-7.726
		C398.948,299.761,402.409,303.223,402.409,307.488z"/>
	<path style="fill:#003A7F;" d="M363.067,383.381v89.852h-45.658c-4.552,0-8.241-3.69-8.241-8.241V363.571
		c0-17.585,5.285-33.944,14.361-47.563c2.658-3.997,5.635-7.757,8.921-11.239c4.121,4.471,7.871,9.272,11.208,14.309
		C356.35,338.125,363.067,360.377,363.067,383.381z"/>
	<path style="fill:#003A7F;" d="M466.714,316.016l-32.753,30.782c-4.965,4.667-12.711,4.592-17.58-0.16l-21.256-20.745
		l-21.256,20.745c-4.869,4.752-12.626,4.827-17.58,0.16l-32.763-30.792c15.407-23.132,41.724-38.379,71.6-38.379
		c23.728,0,45.219,9.621,60.775,25.167C459.927,306.821,463.56,311.254,466.714,316.016z"/>
</g>
<path style="fill:#1D71B8;" d="M456.643,303.555l-28.467,26.751c-1.608,1.511-4.121,1.487-5.7-0.054l-27.351-26.697l-27.351,26.697
	c-1.579,1.541-4.092,1.565-5.7,0.054l-28.467-26.751c15.599-16.006,37.404-25.938,61.518-25.938c24.117,0,45.917,9.93,61.519,25.935
	C456.643,303.553,456.643,303.554,456.643,303.555z"/>
<path style="fill:#E8A96B;" d="M395.121,303.555L395.121,303.555c-10.513,0-19.036-8.523-19.036-19.036v-32.83h38.072v32.831
	C414.156,295.033,405.634,303.555,395.121,303.555z"/>
<path style="fill:#FCCE99;" d="M463.664,116.183l-3.276,39.332l-4.43,52.941c-2.648,31.822-29.257,56.299-61.193,56.299
	c-29.03,0-53.672-20.233-59.895-47.821c-0.618-2.761-1.061-5.584-1.298-8.478l-4.636-55.516l-3.07-36.757
	C325.866,116.183,463.664,116.183,463.664,116.183z"/>
<path style="fill:#E8A96B;" d="M363.685,145.914c5.439,7.458,8.653,16.627,8.653,26.548c0,22.273-16.215,40.826-37.468,44.473
	c-0.618-2.761-1.061-5.584-1.298-8.478l-4.636-55.516l-3.07-36.757h49.119C372.627,126.341,368.846,136.282,363.685,145.914z"/>
<path style="fill:#0054A0;" d="M475.501,102.121v50.922c-48.316,3.266-82.229-15.834-82.229-15.834v8.053
	c0,4.239-3.626,7.585-7.851,7.236c-6.948-0.574-13.245-1.348-18.955-2.277c-43.257-7.016-52.591-22.489-52.591-22.489v-25.61
	L475.501,102.121L475.501,102.121z"/>
<path style="fill:#003A7F;" d="M363.685,145.914c1.01,1.38,1.937,2.812,2.781,4.306c-43.257-7.016-52.591-22.489-52.591-22.489
	v-25.61h63.49C375.779,117.172,371.215,131.873,363.685,145.914z"/>
<path style="fill:#0054A0;" d="M219.913,127.731c0,38.477-21.047,72.051-52.251,89.811c-15.061,8.592-32.482,13.495-51.056,13.495
	c-57.051,0-103.307-46.255-103.307-103.306S59.555,24.425,116.606,24.425c8.231,0,16.236,0.958,23.911,2.792
	C186.041,37.992,219.913,78.911,219.913,127.731z"/>
<path style="fill:#003A7F;" d="M219.913,127.731c0,38.477-21.047,72.051-52.251,89.811c-0.68,0.031-1.381,0.051-2.071,0.051
	c-24.889,0-45.143-20.253-45.143-45.132c0-8.334,2.277-16.133,6.233-22.839c-9.962-18.935-16.823-48.418-4.131-90.357
	c3.575-11.796,9.643-22.571,17.966-32.049C186.041,37.992,219.913,78.911,219.913,127.731z"/>
<path style="fill:#0054A0;" d="M202.276,363.571v101.421c0,4.553-3.688,8.241-8.241,8.241H38.622c-4.553,0-8.241-3.688-8.241-8.241
	V363.571c0-17.585,5.285-33.944,14.361-47.563c15.401-23.138,41.722-38.385,71.598-38.385c20.202,0,38.786,6.974,53.467,18.657
	c2.555,2.029,4.996,4.203,7.304,6.511c4.028,4.028,7.665,8.468,10.817,13.228C196.991,329.636,202.276,345.985,202.276,363.571z"/>
<g>
	<path style="fill:#003A7F;" d="M123.622,307.488v165.746h-15.453V307.488c0-4.265,3.461-7.726,7.726-7.726
		C120.16,299.761,123.622,303.223,123.622,307.488z"/>
	<path style="fill:#003A7F;" d="M187.926,316.017c9.066,13.619,14.35,29.968,14.35,47.553v101.421c0,4.552-3.69,8.241-8.241,8.241
		h-63.48V383.38c0-23.014,6.717-45.266,19.429-64.355c5.676-8.52,12.352-16.143,19.821-22.746c2.555,2.029,4.996,4.203,7.304,6.511
		C181.137,306.818,184.773,311.258,187.926,316.017z"/>
	<path style="fill:#003A7F;" d="M187.927,316.016l-32.753,30.782c-4.965,4.667-12.711,4.592-17.58-0.16l-21.256-20.745
		l-21.256,20.745c-4.869,4.752-12.626,4.827-17.58,0.16l-32.763-30.792c15.407-23.132,41.724-38.379,71.6-38.379
		c23.728,0,45.219,9.621,60.775,25.167C181.14,306.821,184.773,311.254,187.927,316.016z"/>
</g>
<path style="fill:#1D71B8;" d="M177.856,303.555l-28.467,26.751c-1.608,1.511-4.121,1.487-5.7-0.054l-27.351-26.697l-27.351,26.697
	c-1.579,1.541-4.092,1.565-5.7,0.054L54.82,303.555c15.599-16.006,37.404-25.938,61.518-25.938c24.117,0,45.917,9.93,61.519,25.935
	C177.856,303.553,177.856,303.554,177.856,303.555z"/>
<path style="fill:#E8A96B;" d="M116.334,303.555L116.334,303.555c-10.513,0-19.036-8.523-19.036-19.036v-32.83h38.071v32.831
	C135.37,295.033,126.847,303.555,116.334,303.555z"/>
<path style="fill:#FCCE99;" d="M184.876,116.183l-3.276,39.332l-4.42,52.941c-0.227,2.699-0.618,5.347-1.185,7.922
	c-6.027,27.877-30.792,48.377-60.018,48.377c-31.936,0-58.545-24.477-61.193-56.299l-4.636-55.516l-3.07-36.757L184.876,116.183
	L184.876,116.183z"/>
<path style="fill:#E8A96B;" d="M116.452,116.183h68.425l-3.276,39.332l-4.42,52.941c-0.227,2.699-0.618,5.347-1.185,7.922
	c-3.348,0.793-6.83,1.216-10.405,1.216c-24.889,0-45.143-20.253-45.143-45.132c0-8.334,2.277-16.133,6.233-22.839
	C122.046,140.825,118.09,129.74,116.452,116.183z"/>
<path style="fill:#0054A0;" d="M196.713,102.121v50.922c-34.14,2.308-61.1-6.552-73.967-11.95c-5.347-2.246-8.262-3.884-8.262-3.884
	v8.055c0,4.233-3.611,7.584-7.829,7.235c-59.61-4.932-71.566-24.768-71.566-24.768v-25.61L196.713,102.121L196.713,102.121z"/>
<path style="fill:#003A7F;" d="M115.648,102.121h81.065v50.922c-34.14,2.308-61.1-6.552-73.967-11.95
	C118.553,130.636,115.597,117.718,115.648,102.121z"/>
<path style="fill:#F9A13E;" d="M352.023,134.778c-11.744,24.096-29.144,37.684-29.144,37.684H169.918c0,0-21.077-9.612-32.193-35.49
	v-0.01c-7.242-16.874-10.24-40.672-0.381-73.225c24.972-82.466,192.304-83.733,218.522-10.621
	C367.867,86.586,361.964,114.432,352.023,134.778z"/>
<g>
	<path style="fill:#E2780E;" d="M210.724,172.462h-40.806c0,0-21.077-9.612-32.193-35.49v-0.01
		c7.675-6.037,17.359-9.643,27.866-9.643C190.481,127.319,210.724,147.573,210.724,172.462z"/>
	<path style="fill:#E2780E;" d="M352.023,134.778c-11.744,24.096-29.144,37.684-29.144,37.684h-40.816
		c0-24.889,20.253-45.143,45.143-45.143C336.364,127.319,344.905,130.06,352.023,134.778z"/>
</g>
<path style="fill:#D2E3F1;" d="M347.614,383.381v120.377c0,4.553-3.688,8.241-8.241,8.241H154.249c-4.543,0-8.241-3.688-8.241-8.241
	V383.381c0-20.624,6.202-39.816,16.833-55.784c18.069-27.135,48.934-45.009,83.98-45.009c27.825,0,53.034,11.28,71.278,29.515
	c4.718,4.718,8.983,9.921,12.682,15.504C341.412,343.575,347.614,362.757,347.614,383.381z"/>
<g>
	<path style="fill:#A5C6E3;" d="M254.032,317.604v194.395H238.58V317.604c0-4.265,3.451-7.726,7.726-7.726
		C250.571,309.878,254.032,313.339,254.032,317.604z"/>
	<path style="fill:#A5C6E3;" d="M330.778,327.607l-38.413,36.101c-5.823,5.473-14.908,5.386-20.618-0.188l-24.93-24.33l-24.93,24.33
		c-5.711,5.573-14.808,5.661-20.618,0.188l-38.425-36.114c18.069-27.129,48.935-45.011,83.973-45.011
		c27.829,0,53.033,11.284,71.277,29.516C322.818,316.823,327.08,322.022,330.778,327.607z"/>
</g>
<path style="fill:#5A9BCC;" d="M318.967,312.993l-33.884,31.841c-1.608,1.511-4.121,1.487-5.7-0.054l-32.566-31.787l-32.566,31.787
	c-1.579,1.541-4.092,1.565-5.7,0.054l-33.883-31.841c18.295-18.772,43.868-30.42,72.149-30.42c27.835,0,53.039,11.279,71.272,29.528
	C318.382,312.393,318.675,312.685,318.967,312.993z"/>
<path style="fill:#FCCE99;" d="M246.813,312.993L246.813,312.993c-12.33,0-22.325-9.995-22.325-22.325v-38.504h44.651v38.504
	C269.139,302.998,259.143,312.993,246.813,312.993z"/>
<path style="fill:#5A9BCC;" d="M318.967,420.888h-39.329c-4.268,0-7.726-3.459-7.726-7.726s3.459-7.726,7.726-7.726h39.329
	c4.268,0,7.726,3.459,7.726,7.726S323.234,420.888,318.967,420.888z"/>
<g>
	<circle style="fill:#FCCE99;" cx="327.2" cy="172.459" r="29.684"/>
	<circle style="fill:#FCCE99;" cx="165.59" cy="172.459" r="29.684"/>
</g>
<path style="fill:#FEE6CC;" d="M327.205,93.244l-3.849,46.123l-5.186,62.093c-3.111,37.326-34.314,66.029-71.777,66.029
	c-37.451,0-68.653-28.703-71.765-66.029l-5.436-65.104l-3.599-43.111h161.612V93.244z"/>
<path style="fill:#FCCE99;" d="M327.205,93.244l-3.849,46.123c-12.346,2.324-24.88,3.486-37.576,3.486
	c-41.787,0-75.214-12.708-92.746-21.118c-5.798,4.811-13.746,10.259-23.842,14.62l-3.599-43.111H327.205z"/>
<path style="fill:#F9A13E;" d="M312.209,70.142c24.992,18.897,68.728,27.974,68.728,27.974
	c-101.218,58.118-191.189,0.614-191.189,0.614s-11.511,14.979-33.693,22.633V70.142H312.209z"/>
<path style="fill:#E2780E;" d="M285.509,131.775c-14.898,0.001-28.305-1.688-39.655-3.985c-26.174-5.296-45.536-14.423-54.595-19.29
	c-5.715,5.632-16.681,14.645-32.684,20.167c-4.035,1.392-8.433-0.751-9.824-4.784s0.749-8.432,4.784-9.824
	c19.76-6.818,29.986-19.906,30.088-20.038c2.443-3.177,6.91-3.959,10.287-1.802c0.208,0.132,22.122,13.88,55.611,20.545
	c38.069,7.577,74.961,3.432,109.923-12.319c-15.45-4.704-36.696-12.649-51.894-24.141c-3.403-2.573-4.076-7.42-1.503-10.823
	c2.572-3.403,7.417-4.077,10.823-1.503c23.283,17.605,65.22,26.486,65.641,26.573c3.141,0.654,5.552,3.181,6.056,6.349
	c0.505,3.168-0.999,6.318-3.782,7.915C348.906,125.418,314.409,131.774,285.509,131.775z"/>
<g>
	<path style="fill:#1D71B8;" d="M208.076,175.551c-4.268,0-7.726-3.459-7.726-7.726v-1.59c0-4.268,3.459-7.726,7.726-7.726
		c4.268,0,7.726,3.459,7.726,7.726v1.59C215.803,172.093,212.344,175.551,208.076,175.551z"/>
	<path style="fill:#1D71B8;" d="M284.527,175.551c-4.268,0-7.726-3.459-7.726-7.726v-1.59c0-4.268,3.459-7.726,7.726-7.726
		c4.268,0,7.726,3.459,7.726,7.726v1.59C292.254,172.093,288.795,175.551,284.527,175.551z"/>
</g>
<path style="fill:#E8A96B;" d="M247.587,227.641c-8.572,0-16.57-2.506-22.52-7.055c-3.39-2.593-4.036-7.442-1.445-10.831
	c2.593-3.389,7.442-4.036,10.831-1.445c3.223,2.465,8.01,3.878,13.134,3.878c5.125,0,9.911-1.413,13.135-3.878
	c3.389-2.592,8.238-1.945,10.831,1.445c2.592,3.389,1.946,8.238-1.445,10.831C264.158,225.135,256.16,227.641,247.587,227.641z"/>
<g>
</g>
<g>
</g>
<g>
</g>
<g>
</g>
<g>
</g>
<g>
</g>
<g>
</g>
<g>
</g>
<g>
</g>
<g>
</g>
<g>
</g>
<g>
</g>
<g>
</g>
<g>
</g>
<g>
</g>
</svg>
